# xmcd CD database file
#
# Track frame offsets:
#	150
#	12987
#	26312
#	38280
#	59000
#	106854
#	120857
#	130212
#	146397
#	168837
#	198680
#	215882
#	252605
#
# Disc length: 3792 seconds
#
# Revision: 0
# Processed by: cddbd v1.5.1PL0 Copyright (c) Steve Scherf et al.
# Submitted via: CDex 1.51
#
DISCID=b10ece0d
DTITLE=Various Artist - Nuova Era and Meditazione 021
DYEAR=1900
DGENRE=New Age
TTITLE0=Wilson and Routh - Eco green
TTITLE1=Thierry David - Samoun dawning @
TTITLE2=Steve Roach - Steel and bone
TTITLE3=Klaus Shonning - Intermezzo III
TTITLE4=Raphael - Initiation
TTITLE5=Michael Gettel - Prelude First snow
TTITLE6=Massoni - Magic moment
TTITLE7=Robin Frederick - Strange attractors
TTITLE8=Kater and Nakai - Quietude
TTITLE9=Danna and Clement - Sparrow hill
TTITLE10=Stairway - Raindreaming part 1
TTITLE11=Keisuke Doi - Kiso
TTITLE12=Kosei Yamamoto - Reflections
EXTD=
EXTT0=
EXTT1=
EXTT2=
EXTT3=
EXTT4=
EXTT5=
EXTT6=
EXTT7=
EXTT8=
EXTT9=
EXTT10=
EXTT11=
EXTT12=
PLAYORDER=
